<?xml version="1.0" encoding="utf-8"?>
<!-- Generator: Adobe Illustrator 16.0.0, SVG Export Plug-In . SVG Version: 6.00 Build 0)  -->
<!DOCTYPE svg PUBLIC "-//W3C//DTD SVG 1.1//EN" "http://www.w3.org/Graphics/SVG/1.1/DTD/svg11.dtd">
<svg version="1.1" id="Layer_1" xmlns="http://www.w3.org/2000/svg" xmlns:xlink="http://www.w3.org/1999/xlink" x="0px" y="0px"
	 width="500px" height="500px" viewBox="0 0 500 500" enable-background="new 0 0 500 500" xml:space="preserve">
<g>
	<rect fill="none" width="500" height="500"/>
	<g>
		<path fill="#0056B3" d="M387.361,250c0,75.861-61.494,137.365-137.361,137.365c-75.87,0-137.363-61.504-137.363-137.365
			S174.13,112.635,250,112.635C325.867,112.635,387.361,174.139,387.361,250z"/>
		<g>
			<path fill="#FFFFFF" d="M173.268,221.948h-14.824c-5.635,0-9.975,1.465-12.899,4.35c-3.137,2.963-4.728,7.216-4.728,12.639
				l0.008,24.394c-0.072,0.593-0.104,1.334-0.104,2.271c0,3.803,1.281,7.241,3.824,10.239c1.167,1.269,2.319,2.237,3.439,2.875
				c1.121,0.644,2.518,1.113,4.141,1.39c1.598,0.285,3.76,0.423,6.427,0.423h0.979c1.025,0,1.738-0.036,2.132-0.103
				c5.511-0.422,9.634-2.003,12.235-4.698c2.602-2.704,3.922-6.697,3.922-11.875v-60.445h-4.553L173.268,221.948L173.268,221.948z
				 M158.25,226.703h15.017v36.956c0,3.732-1.004,6.619-2.981,8.584c-1.996,1.979-5.176,3.207-9.383,3.631
				c-0.516,0-0.934,0.011-1.229,0.026c-0.296,0.02-0.638,0.046-0.959,0.08h-0.265c-3.302,0-5.937-0.435-7.843-1.283
				c-1.868-0.825-3.169-2.125-3.979-3.977c-0.838-1.899-1.256-4.53-1.256-7.827v-23.722c0-2.611,0.433-4.788,1.263-6.465
				c0.83-1.671,2.189-3.12,4.031-4.319C152.365,227.271,154.915,226.703,158.25,226.703z"/>
			<path fill="#FFFFFF" d="M205.718,221.948h-4.597v4.65h6.284c3.703,0,6.601,0.965,8.604,2.865
				c1.996,1.899,3.007,4.744,3.007,8.457v3.022h-16.485c-3.053,0-5.784,0.648-8.122,1.91c-2.351,1.275-4.192,3.127-5.447,5.506
				c-1.25,2.351-1.88,5.161-1.88,8.339v8.598c0.104,3.96,1.275,7.322,3.484,9.988c2.209,2.676,5.397,4.366,9.504,5.036
				c1.302,0.138,2.235,0.209,2.764,0.209h5.589c2.627,0,4.894-0.396,6.742-1.169c1.856-0.776,3.503-1.961,4.896-3.536
				c1.307-1.551,2.215-3.167,2.698-4.81c0.471-1.612,0.708-3.821,0.708-6.549v-25.94
				C223.467,227.525,217.498,221.948,205.718,221.948z M202.325,245.595h16.589v19.681c0,3.405-0.889,6.072-2.639,7.921
				c-1.752,1.848-4.36,2.785-7.748,2.785h-5.893c-0.438,0-0.984-0.074-1.641-0.199c-6.298-1.012-9.363-4.519-9.363-10.706v-8.475
				c0-3.111,0.765-5.604,2.259-7.414c1.501-1.797,3.736-2.942,6.64-3.394C201.578,245.631,202.087,245.595,202.325,245.595z"/>
			<path fill="#FFFFFF" d="M237.132,218.862c0-0.493,0.065-1.201,0.193-2.102c0.297-1.762,0.793-3.236,1.481-4.389
				c0.677-1.133,1.591-2.051,2.71-2.734c1.141-0.692,2.603-1.228,4.302-1.581c0.844-0.132,1.481-0.2,1.899-0.2h10.478v-4.553
				h-10.781c-0.521,0-1.307,0.072-2.485,0.212c-8.198,1.237-12.352,6.501-12.352,15.649v80.44h4.553v-73.008h15.574v-4.65h-15.574
				L237.132,218.862L237.132,218.862z"/>
			<path fill="#FFFFFF" d="M275.051,221.948h-4.604v4.65h6.292c3.696,0,6.595,0.965,8.603,2.865
				c1.991,1.899,3.008,4.747,3.008,8.457v3.022h-16.492c-3.047,0-5.777,0.648-8.114,1.91c-2.363,1.282-4.192,3.13-5.455,5.506
				c-1.243,2.351-1.88,5.158-1.88,8.339v8.598c0.104,3.96,1.274,7.322,3.483,9.988c2.209,2.676,5.397,4.366,9.506,5.036
				c1.308,0.138,2.235,0.209,2.77,0.209h5.59c2.621,0,4.894-0.396,6.736-1.169c1.86-0.776,3.503-1.961,4.899-3.536
				c1.309-1.558,2.215-3.174,2.692-4.81c0.482-1.626,0.716-3.771,0.716-6.549v-25.94C292.8,227.525,286.822,221.948,275.051,221.948
				z M271.657,245.595h16.589v19.681c0,3.409-0.895,6.072-2.646,7.921c-1.753,1.848-4.354,2.785-7.747,2.785h-5.892
				c-0.439,0-0.979-0.074-1.644-0.199c-6.291-1.012-9.356-4.519-9.356-10.706v-8.475c0-3.111,0.759-5.604,2.267-7.414
				c1.494-1.797,3.723-2.942,6.626-3.394C270.909,245.631,271.419,245.595,271.657,245.595z"/>
			<path fill="#FFFFFF" d="M343.828,221.948h-1.043c-4.591,0-8.21,1.558-10.741,4.602c-0.58,0.598-1.056,1.246-1.437,1.938
				c-0.471-0.812-0.888-1.439-1.274-1.906c-2.558-3.076-6.196-4.633-10.813-4.633h-0.991c-10.684,0-16.101,5.972-16.101,17.748
				v40.832h4.547v-42.371c0-2.547,0.464-4.718,1.385-6.462c0.922-1.738,2.216-2.995,3.967-3.829c1.759-0.84,3.915-1.268,6.396-1.268
				h0.778c0.862,0,1.688,0.1,2.453,0.296c2.576,0.631,4.419,1.887,5.468,3.719c1.082,1.896,1.63,4.994,1.63,9.219v40.696h4.657
				v-40.696c0-2.782,0.263-5.078,0.785-6.813c0.516-1.684,1.319-3.016,2.401-3.96c1.107-0.957,2.563-1.687,4.328-2.164
				c0.772-0.196,1.629-0.296,2.563-0.296h0.844c3.521,0,6.284,0.972,8.204,2.891c1.918,1.916,2.892,4.83,2.892,8.668v42.371h4.554
				v-40.832C359.278,227.92,354.08,221.948,343.828,221.948z"/>
		</g>
		<g>
			<path fill="#FFFFFF" d="M192.523,151.154h2.808v9.067h11.108v-9.067h2.814v21.091h-2.814v-9.667h-11.108v9.667h-2.808V151.154z"
				/>
			<path fill="#FFFFFF" d="M219.101,157.546c0.425-1.333,1.063-2.509,1.906-3.533c0.851-1.023,1.9-1.845,3.163-2.453
				c1.261-0.611,2.731-0.917,4.412-0.917c1.667,0,3.135,0.306,4.397,0.917c1.263,0.608,2.319,1.43,3.163,2.453
				c0.849,1.024,1.486,2.2,1.912,3.533c0.418,1.329,0.632,2.714,0.632,4.15c0,1.44-0.213,2.824-0.632,4.154
				c-0.426,1.33-1.063,2.509-1.912,3.529c-0.844,1.029-1.9,1.848-3.163,2.456s-2.73,0.915-4.397,0.915
				c-1.681,0-3.15-0.306-4.412-0.915c-1.263-0.608-2.312-1.427-3.163-2.456c-0.842-1.021-1.481-2.2-1.906-3.529
				c-0.418-1.33-0.637-2.713-0.637-4.154C218.463,160.26,218.683,158.875,219.101,157.546z M221.689,164.846
				c0.276,1.033,0.709,1.963,1.301,2.794c0.592,0.825,1.353,1.491,2.273,1.993c0.928,0.505,2.029,0.75,3.318,0.75
				c1.281,0,2.376-0.244,3.303-0.75c0.927-0.502,1.687-1.168,2.28-1.993c0.592-0.831,1.023-1.762,1.301-2.794
				c0.271-1.035,0.412-2.087,0.412-3.15c0-1.065-0.142-2.112-0.412-3.149c-0.277-1.037-0.709-1.967-1.301-2.792
				c-0.594-0.824-1.352-1.488-2.28-1.997c-0.927-0.499-2.022-0.754-3.303-0.754c-1.288,0-2.39,0.255-3.318,0.754
				c-0.92,0.508-1.681,1.172-2.273,1.997c-0.592,0.825-1.023,1.755-1.301,2.792c-0.282,1.037-0.412,2.083-0.412,3.149
				C221.278,162.759,221.407,163.812,221.689,164.846z"/>
			<path fill="#FFFFFF" d="M251.944,153.511h-7.039v-2.357h16.886v2.357h-7.039v18.734h-2.808V153.511L251.944,153.511z"/>
			<path fill="#FFFFFF" d="M269.898,151.154h14.574v2.357h-11.76v6.71h10.961v2.356h-10.961v7.306h11.849v2.361h-14.663V151.154
				L269.898,151.154z"/>
			<path fill="#FFFFFF" d="M293.494,151.154h2.809v18.73h11.173v2.36h-13.981V151.154L293.494,151.154z"/>
		</g>
	</g>
</g>
</svg>
